<svg xmlns="http://www.w3.org/2000/svg" width="426" height="174" viewBox="0 0 426 174">
    <defs>
        <linearGradient id="prefix__a" x1="100%" x2="26.871%" y1="100%" y2="30.201%">
            <stop offset="0%" stop-color="#023989"/>
            <stop offset="100%" stop-color="#B8D0E8"/>
        </linearGradient>
    </defs>
    <g fill="none" fill-rule="evenodd">
        <text fill="#000" font-family="SFProText-Bold, SF Pro Text" font-size="120" font-weight="bold">
            <tspan x="15.691" y="129">4 </tspan>
        </text>
        <text fill="#000" font-family="SFProText-Bold, SF Pro Text" font-size="120" font-weight="bold">
            <tspan x="327.691" y="129">4 </tspan>
        </text>
        <g transform="translate(126)">
            <circle cx="87" cy="87" r="87" fill="url(#prefix__a)" opacity=".389"/>
            <path fill="#1E3F6F" d="M62 84.806c.368 18.429 12.462 21.554 12.833 14.705.263-4.846-5.869-32.083-11.912-18.982L62 84.806z" opacity=".1"/>
            <ellipse cx="139" cy="48" fill="#1E3F6F" opacity=".1" rx="7" ry="14" transform="rotate(-20 139 48)"/>
            <circle cx="137.5" cy="115.5" r="12.5" fill="#1E3F6F" opacity=".1"/>
            <circle cx="79.5" cy="52.5" r="4.5" fill="#1E3F6F" opacity=".1"/>
            <path fill="#1E3F6F" d="M22.119 57.588c-2.34.497-3.872 3.651-5.42 7.355-2.837 6.787-2.307 22.871 3.006 15.722 5.33-7.17 19.768-21.795 6.441-23.665l-4.027.588zM62.724 15.041c5.121-2.568 8.91-5.274 14.387-6.952 5.473-1.677 23.252-2.853 22.397 7.877-.076.965-1.331 1.716-2.298 1.776-7.146.444-14.512-1.957-21.477-.299-5.558 1.324-9.557 6.307-14.648 8.901-.89.454-2.111.555-2.994.089-.835-.44-1.091-1.747-1.091-2.661 0-4.14.256-3.468 2.769-6.329l2.955-2.402zM42.993 126.93c1.793 2.631 3.114 5.656 5.38 7.892 3.237 3.193 7.599 5.069 10.912 8.182 6.197 5.822 5.711 10.941-4.35 10.636-9.898-.3-26.942-26.852-18.795-30.369 1.004-.433 3.08-.433 4.679.644l2.174 3.016z" opacity=".1"/>
        </g>
    </g>
</svg>
