<svg xmlns="http://www.w3.org/2000/svg" width="225" height="30" viewBox="0 0 225 30">
    <defs>
        <linearGradient id="prefix__a" x1="50.333%" x2="50.333%" y1="89.297%" y2="10.559%">
            <stop offset="0%" stop-color="#002D74"/>
            <stop offset="100%" stop-color="#002D74" stop-opacity="0"/>
        </linearGradient>
        <linearGradient id="prefix__b" x1="50.083%" x2="50.083%" y1="89.189%" y2="10.45%">
            <stop offset="0%" stop-color="#002D74" stop-opacity="0"/>
            <stop offset="100%" stop-color="#002D74"/>
        </linearGradient>
    </defs>
    <g fill="none" fill-rule="evenodd">
        <path fill="#002D74" fill-rule="nonzero" d="M37.53 20.87c-1.476.02-2.897-.56-3.939-1.606C32.55 18.22 31.976 16.796 32 15.32c-.021-1.484.554-2.914 1.598-3.97 1.044-1.054 2.468-1.646 3.952-1.64 1.632-.072 3.206.61 4.27 1.85L40.3 13.2c-.676-.839-1.693-1.33-2.77-1.34-.866.033-1.682.415-2.262 1.06-.58.644-.875 1.495-.818 2.36-.058.89.252 1.765.857 2.42.604.656 1.451 1.035 2.343 1.05 1.072-.031 2.08-.519 2.77-1.34l1.48 1.46c-1.065 1.311-2.681 2.05-4.37 2zM46.55 20.87H44.1V9.73h2.45v2.62c.53-1.627 2.08-2.7 3.79-2.62v2.6h-.14c-2.15 0-3.65 1.39-3.65 4.23v4.31zM63.17 9.71L57.75 23.87 55.27 23.87 56.45 20.88 51.81 9.71 54.42 9.71 57.59 17.96 60.63 9.71zM71 20.85c-1.452.033-2.825-.66-3.66-1.85v4.9h-2.45V9.71h2.45v2c.783-1.244 2.15-2 3.62-2 2.53 0 5 2 5 5.57 0 3.57-2.45 5.57-4.96 5.57zm-.56-9c-.877.022-1.707.403-2.296 1.052-.59.65-.887 1.513-.824 2.388-.063.876.234 1.74.823 2.391.59.651 1.42 1.034 2.297 1.059.865-.034 1.677-.424 2.245-1.077.568-.653.841-1.512.755-2.373.08-.867-.2-1.728-.776-2.38-.575-.654-1.394-1.04-2.264-1.07l.04.01zM81.32 12v5.25c-.058.364.06.733.32.996.258.262.625.386.99.334h1v2.19h-1.71c-1.79 0-3-.8-3-3.14V12h-1.41V9.94h1.36V7h2.45v2.94h2.27V12h-2.27zM91.35 20.87c-1.495.038-2.942-.53-4.012-1.576-1.07-1.045-1.671-2.478-1.668-3.974-.065-2.326 1.287-4.458 3.419-5.391 2.131-.933 4.615-.479 6.28 1.147 1.663 1.626 2.175 4.099 1.291 6.251-.883 2.153-2.983 3.554-5.31 3.543zm0-9c-.892-.004-1.745.36-2.357 1.009-.612.648-.928 1.521-.873 2.411-.044.898.28 1.776.897 2.43.617.655 1.474 1.03 2.373 1.04.895.007 1.753-.358 2.368-1.009.614-.65.93-1.528.872-2.421.044-.9-.282-1.779-.9-2.434-.62-.655-1.479-1.029-2.38-1.036v.01zM120.51 20.87c-1.494.038-2.94-.53-4.008-1.576s-1.668-2.48-1.662-3.974c-.061-2.32 1.292-4.447 3.42-5.375 2.128-.928 4.606-.472 6.265 1.152 1.66 1.624 2.168 4.092 1.285 6.24-.882 2.147-2.978 3.544-5.3 3.533zm0-9c-.89-.005-1.743.361-2.354 1.01-.61.648-.924 1.521-.866 2.41-.046.897.275 1.775.89 2.43.616.655 1.471 1.03 2.37 1.04.895.007 1.753-.358 2.368-1.009.614-.65.93-1.528.872-2.421.044-.9-.282-1.779-.9-2.434-.62-.655-1.479-1.029-2.38-1.036v.01zM140.8 9.71c2.33 0 3.75 1.48 3.75 4.1v7.06h-2.45v-6.32c0-1.7-.79-2.61-2.17-2.61s-2.28.93-2.28 2.66v6.27h-2.46v-6.34c0-1.66-.81-2.59-2.16-2.59s-2.29 1-2.29 2.68v6.25h-2.45V9.71h2.45v1.85c.691-1.141 1.926-1.842 3.26-1.85 1.343-.063 2.593.68 3.18 1.89.818-1.192 2.174-1.9 3.62-1.89zM101.56 18.63v1.23c.005.05-.024.099-.07.12l-1.07.62c-.042.03-.098.03-.14 0l-1.07-.6c-.043-.025-.07-.07-.07-.12v-1.25c.002-.052.028-.1.07-.13l1.07-.62c.045-.02.095-.02.14 0l1.07.62c.045.028.071.077.07.13zM109 20.86c-1.475-.01-2.883-.616-3.903-1.68-1.021-1.064-1.568-2.496-1.517-3.97.005-1.486.608-2.907 1.673-3.944 1.064-1.037 2.501-1.6 3.987-1.566 1.633-.034 3.193.676 4.24 1.93L112 13.24c-.664-.85-1.672-1.36-2.75-1.39-.867.018-1.69.385-2.282 1.017-.593.632-.906 1.477-.868 2.343-.072.89.223 1.769.816 2.436.593.666 1.433 1.061 2.324 1.094 1.074-.013 2.092-.482 2.8-1.29l1.45 1.49c-1.11 1.314-2.774 2.025-4.49 1.92z"/>
        <g fill-rule="nonzero">
            <path fill="#FFF" d="M12 0L0 7v13.84l12 6.94 12-6.94V6.95L12 0zm0 0L0 7v13.84l12 6.94 12-6.94V6.95L12 0z" transform="translate(0 .56)"/>
            <path fill="#002D74" d="M12 0L0 7v13.84l12 6.94 12-6.94V6.95L12 0zM7.25 6h9.46l1.14 4.82H6.18L7.25 6zm3.83 14.44L9 22.37H7.31L3 14.84l3.17-2.35L9 14.27v3.17l2.12 2-.04 1zm-1.39-3.16l.32-3-1-2.7h6.09l-1 2.7.3 3H9.69zm7.07 5.06h-1.7L13 20.44v-.95l2.11-2v-3.22l2.8-1.83 3.16 2.38-4.31 7.52z" transform="translate(0 .56)"/>
            <path fill="url(#prefix__a)" d="M12 0v6h4.71l1.14 4.82H12v.73h3.1l-1 2.7.3 3H12v10.5l12-6.94V6.95L12 0zm4.76 22.34h-1.7L13 20.44v-.95l2.11-2v-3.22l2.8-1.83 3.16 2.38-4.31 7.52z" style="mix-blend-mode:multiply" transform="translate(0 .56)"/>
            <path fill="url(#prefix__b)" d="M9.69 17.28l.32-3-1-2.7H12v-.73H6.18l1.1-4.82H12v-6l-12 7v13.81l12 6.94v-10.5H9.69zm1.39 3.16L9 22.37H7.31L3 14.84l3.17-2.35L9 14.27v3.17l2.12 2-.04 1z" style="mix-blend-mode:multiply" transform="translate(0 .56)"/>
        </g>
        <path fill="#B6B8BA" d="M169.84 21c-1.535.027-3.015-.57-4.1-1.657-1.084-1.087-1.68-2.568-1.65-4.103-.028-1.555.581-3.055 1.686-4.15 1.105-1.095 2.609-1.691 4.164-1.65 1.653-.081 3.262.548 4.42 1.73l-1.57 1.81c-.753-.784-1.784-1.24-2.87-1.27-.899.018-1.752.4-2.364 1.057-.613.658-.932 1.535-.886 2.433-.052.902.265 1.786.878 2.45.613.664 1.469 1.05 2.372 1.07 1.14.005 2.229-.47 3-1.31l1.52 1.59c-1.145 1.338-2.84 2.076-4.6 2M185.03 20.78L185.03 16.28 180.48 16.28 180.48 20.78 178.02 20.78 178.02 9.57 180.48 9.57 180.48 14.01 185.03 14.01 185.03 9.57 187.5 9.57 187.5 20.78zM196.28 12.45l-1.49 3.64h3l-1.51-3.64zm1.17-3l4.81 11.29h-2.58l-1-2.51h-4.74l-1 2.51h-2.52l4.81-11.29h2.22z"/>
        <path fill="#B6B8BA" fill-rule="nonzero" d="M205.49 9.57H207.96V20.78H205.49zM220.67 20.78L215.23 13.65 215.23 20.78 212.8 20.78 212.8 9.57 215.07 9.57 220.33 16.47 220.33 9.57 222.76 9.57 222.76 20.78z"/>
        <path fill="#B6B8BA" d="M169.84 21c-1.535.027-3.015-.57-4.1-1.657-1.084-1.087-1.68-2.568-1.65-4.103-.028-1.555.581-3.055 1.686-4.15 1.105-1.095 2.609-1.691 4.164-1.65 1.653-.081 3.262.548 4.42 1.73l-1.57 1.81c-.753-.784-1.784-1.24-2.87-1.27-.899.018-1.752.4-2.364 1.057-.613.658-.932 1.535-.886 2.433-.052.902.265 1.786.878 2.45.613.664 1.469 1.05 2.372 1.07 1.14.005 2.229-.47 3-1.31l1.52 1.59c-1.145 1.338-2.84 2.076-4.6 2M185.03 20.78L185.03 16.28 180.48 16.28 180.48 20.78 178.02 20.78 178.02 9.57 180.48 9.57 180.48 14.01 185.03 14.01 185.03 9.57 187.5 9.57 187.5 20.78zM196.28 12.45l-1.49 3.64h3l-1.51-3.64zm1.17-3l4.81 11.29h-2.58l-1-2.51h-4.74l-1 2.51h-2.52l4.81-11.29h2.22z"/>
        <path stroke="#B6B8BA" stroke-width=".55" d="M154.12 0L154.12 29.17"/>
    </g>
</svg>
