<svg width="285" height="30" viewBox="0 0 285 30" fill="none" xmlns="http://www.w3.org/2000/svg">
    <path d="M233.72 10.0303H238.09C241.61 10.0303 244.04 12.4503 244.04 15.6003V15.6303C244.04 18.7803 241.61 21.2303 238.09 21.2303H233.72V10.0303ZM238.09 19.0103C240.11 19.0103 241.47 17.6503 241.47 15.6603V15.6303C241.47 13.6503 240.11 12.2503 238.09 12.2503H236.18V19.0003H238.09V19.0103Z" fill="#898A8D" />
    <path d="M246.34 15.6598V15.6298C246.34 12.4398 248.85 9.83984 252.31 9.83984C255.77 9.83984 258.25 12.4198 258.25 15.5998V15.6298C258.25 18.8198 255.74 21.4198 252.28 21.4198C248.82 21.4198 246.34 18.8498 246.34 15.6598ZM255.67 15.6598V15.6298C255.67 13.7098 254.26 12.1098 252.28 12.1098C250.3 12.1098 248.92 13.6798 248.92 15.5998V15.6298C248.92 17.5498 250.33 19.1498 252.31 19.1498C254.29 19.1498 255.67 17.5798 255.67 15.6598Z" fill="#898A8D" />
    <path d="M261.54 15.6598V15.6298C261.54 12.4398 263.94 9.83984 267.38 9.83984C269.49 9.83984 270.76 10.5398 271.8 11.5698L270.23 13.3798C269.37 12.5998 268.48 12.1198 267.36 12.1198C265.47 12.1198 264.11 13.6898 264.11 15.6098V15.6398C264.11 17.5598 265.44 19.1598 267.36 19.1598C268.64 19.1598 269.43 18.6498 270.31 17.8498L271.88 19.4298C270.73 20.6598 269.45 21.4298 267.29 21.4298C263.99 21.4198 261.54 18.8798 261.54 15.6598Z" fill="#898A8D" />
    <path d="M274.67 19.6001L276.13 17.8601C277.14 18.6901 278.19 19.2201 279.47 19.2201C280.48 19.2201 281.09 18.8201 281.09 18.1601V18.1301C281.09 17.5101 280.71 17.1901 278.83 16.7101C276.57 16.1301 275.12 15.5101 275.12 13.2801V13.2501C275.12 11.2201 276.75 9.87012 279.04 9.87012C280.67 9.87012 282.07 10.3801 283.2 11.2901L281.92 13.1501C280.93 12.4601 279.95 12.0501 279.01 12.0501C278.07 12.0501 277.57 12.4801 277.57 13.0301V13.0601C277.57 13.8001 278.05 14.0401 279.99 14.5301C282.26 15.1201 283.54 15.9401 283.54 17.8901V17.9201C283.54 20.1501 281.84 21.3901 279.43 21.3901C277.73 21.3901 276.02 20.8001 274.67 19.6001Z" fill="#898A8D" />
    <path fill-rule="evenodd" clip-rule="evenodd" d="M169.76 21.4203C166.46 21.4203 164.01 18.8703 164.01 15.6503V15.6203C164.01 12.4303 166.41 9.82031 169.86 9.82031C171.97 9.82031 173.24 10.5303 174.28 11.5503L172.71 13.3603C171.84 12.5703 170.96 12.0903 169.84 12.0903C167.95 12.0903 166.59 13.6603 166.59 15.5803V15.6103C166.59 17.5303 167.92 19.1303 169.84 19.1303C171.12 19.1303 171.91 18.6203 172.79 17.8203L174.36 19.4103C173.2 20.6503 171.92 21.4203 169.76 21.4203Z" fill="#898A8D" />
    <path fill-rule="evenodd" clip-rule="evenodd" d="M184.95 21.2305V16.7305H180.4V21.2305H177.94V10.0205H180.4V14.4505H184.95V10.0205H187.42V21.2305H184.95Z" fill="#898A8D" />
    <path fill-rule="evenodd" clip-rule="evenodd" d="M196.2 12.9004L194.71 16.5404H197.69L196.2 12.9004ZM197.37 9.94043L202.18 21.2304H199.6L198.57 18.7204H193.83L192.8 21.2304H190.29L195.1 9.94043H197.37Z" fill="#898A8D" />
    <path d="M207.88 10.0205H205.41V21.2305H207.88V10.0205Z" fill="#898A8D" />
    <path d="M220.59 21.2305L215.15 14.1005V21.2305H212.72V10.0205H214.99L220.25 16.9205V10.0205H222.68V21.2305H220.59Z" fill="#898A8D" />
    <path fill-rule="evenodd" clip-rule="evenodd" d="M169.76 21.4203C166.46 21.4203 164.01 18.8703 164.01 15.6503V15.6203C164.01 12.4303 166.41 9.82031 169.86 9.82031C171.97 9.82031 173.24 10.5303 174.28 11.5503L172.71 13.3603C171.84 12.5703 170.96 12.0903 169.84 12.0903C167.95 12.0903 166.59 13.6603 166.59 15.5803V15.6103C166.59 17.5303 167.92 19.1303 169.84 19.1303C171.12 19.1303 171.91 18.6203 172.79 17.8203L174.36 19.4103C173.2 20.6503 171.92 21.4203 169.76 21.4203Z" fill="#898A8D" />
    <path fill-rule="evenodd" clip-rule="evenodd" d="M184.95 21.2305V16.7305H180.4V21.2305H177.94V10.0205H180.4V14.4505H184.95V10.0205H187.42V21.2305H184.95Z" fill="#898A8D" />
    <path fill-rule="evenodd" clip-rule="evenodd" d="M196.2 12.9004L194.71 16.5404H197.69L196.2 12.9004ZM197.37 9.94043L202.18 21.2304H199.6L198.57 18.7204H193.83L192.8 21.2304H190.29L195.1 9.94043H197.37Z" fill="#898A8D" />
    <path d="M150.38 1.15039H149.86V28.9204H150.38V1.15039Z" fill="#898A8D" />
    <path d="M103.78 15.7906V15.7506C103.78 12.6806 106.22 10.1406 109.51 10.1406C112.8 10.1406 115.22 12.6406 115.22 15.7106V15.7506C115.22 18.8006 112.78 21.3406 109.47 21.3406C106.2 21.3406 103.78 18.8406 103.78 15.7906ZM112.77 15.7906V15.7506C112.77 13.8606 111.41 12.2906 109.48 12.2906C107.51 12.2906 106.25 13.8306 106.25 15.7006V15.7406C106.25 17.6106 107.61 19.2006 109.52 19.2006C111.51 19.2106 112.77 17.6406 112.77 15.7906Z" fill="#002D74" />
    <path d="M117.73 10.3701H120.19V12.7901C120.86 11.1801 122.1 10.0901 123.99 10.1701V12.7701H123.85C121.7 12.7701 120.19 14.1701 120.19 17.0201V21.1101H117.73V10.3701Z" fill="#002D74" />
    <path d="M127.75 24.3904V22.4004C127.75 22.4004 129.07 22.4004 130.53 22.4004C132.73 22.4004 133.92 21.2604 133.92 19.1104V18.2804C133.03 19.4404 131.91 20.2504 130.14 20.2504C127.62 20.2504 125.26 18.3804 125.26 15.2304V15.1904C125.26 12.0204 127.64 10.1504 130.14 10.1504C131.95 10.1504 133.07 10.9804 133.9 11.9804V10.3704H136.36V18.9104C136.36 20.7204 135.89 22.0604 135 22.9504C134.02 23.9304 132.52 24.3904 130.59 24.3904C128.82 24.3904 127.75 24.3904 127.75 24.3904ZM133.95 15.2204V15.1804C133.95 13.4104 132.51 12.2104 130.8 12.2104C129.09 12.2104 127.75 13.3904 127.75 15.1604V15.2004C127.75 16.9704 129.11 18.1704 130.8 18.1704C132.5 18.1704 133.95 16.9504 133.95 15.2204Z" fill="#002D74" />
    <path d="M101.66 19.0809V20.3209C101.66 20.3709 101.63 20.4209 101.59 20.4409L100.52 21.0609C100.47 21.0909 100.42 21.0909 100.38 21.0609L99.31 20.4409C99.27 20.4209 99.24 20.3709 99.24 20.3209V19.0809C99.24 19.0309 99.27 18.9809 99.31 18.9609L100.38 18.3409C100.42 18.3109 100.48 18.3109 100.52 18.3409L101.59 18.9609C101.64 18.9809 101.66 19.0309 101.66 19.0809Z" fill="#002D74" />
    <path d="M37.56 21.3304C34.38 21.3304 32.03 18.8404 32.03 15.7704C32.03 12.7004 34.38 10.1504 37.58 10.1504C39.61 10.1504 40.86 10.9004 41.86 11.9904L40.34 13.6304C39.59 12.8404 38.8 12.2904 37.56 12.2904C35.78 12.2904 34.48 13.8304 34.48 15.7204C34.48 17.6504 35.8 19.1904 37.68 19.1904C38.84 19.1904 39.69 18.6404 40.46 17.8504L41.94 19.3104C40.89 20.5004 39.65 21.3304 37.56 21.3304Z" fill="#002D74" />
    <path d="M46.6001 21.3309H44.1501V10.1809H46.6001V12.8009C47.2701 11.2009 48.5101 10.1009 50.3901 10.1809V12.7809H50.2501C48.1001 12.7809 46.6001 14.1809 46.6001 17.0209V21.3309Z" fill="#002D74" />
    <path d="M63.2301 10.1602L57.8101 24.3302H55.3201L56.5101 21.3302L51.8601 10.1602H54.4801L57.6501 18.4102L60.6901 10.1602H63.2301Z" fill="#002D74" />
    <path d="M71.03 21.3102C69.27 21.3102 68.15 20.4202 67.4 19.4202V24.3302H64.95V10.1602H67.4V12.1702C68.19 11.0602 69.31 10.1602 71.03 10.1602C73.56 10.1602 76.02 12.1702 76.02 15.7402C76.02 19.3002 73.59 21.3102 71.03 21.3102ZM70.47 12.2902C68.81 12.2902 67.35 13.6502 67.35 15.7402C67.35 17.8302 68.81 19.1902 70.47 19.1902C72.15 19.1902 73.53 17.8702 73.53 15.7402C73.53 13.6302 72.13 12.2902 70.47 12.2902Z" fill="#002D74" />
    <path d="M81.4001 12.4904V17.7404C81.4001 18.6904 81.8801 19.0804 82.7201 19.0804H83.6801V21.2704H82.0001C80.2101 21.2704 78.9501 20.4704 78.9501 18.1304V12.5004H77.5901V10.3804H78.9501V7.44043H81.4001V10.3804H83.6801V12.4904H81.4001Z" fill="#002D74" />
    <path d="M91.44 21.3304C88.18 21.3304 85.76 18.8404 85.76 15.7704C85.76 12.6904 88.19 10.1504 91.48 10.1504C94.76 10.1504 97.18 12.6404 97.18 15.7304C97.17 18.8004 94.74 21.3304 91.44 21.3304ZM91.44 12.3104C89.47 12.3104 88.22 13.8504 88.22 15.7404C88.22 17.6504 89.58 19.2104 91.48 19.2104C93.47 19.2104 94.72 17.6704 94.72 15.7804C94.72 13.8704 93.36 12.3104 91.44 12.3104Z" fill="#002D74" />
    <path d="M12.04 1L0 7.95V21.85L12.04 28.8L24.08 21.85V7.95L12.04 1ZM20.51 19.79L12.04 24.68L3.57 19.79V10.01L12.04 5.12L20.51 10.01V19.79Z" fill="#002D74" />
    <path d="M12.04 5.12V1L0 7.95V21.85L12.04 28.8V24.68L3.57 19.79V10.01L12.04 5.12Z" fill="url(#paint0_linear)" style="mix-blend-mode:multiply" />
    <path d="M12.04 24.68V28.8L24.08 21.85V7.95L12.04 1V5.12L20.51 10.01V19.79L12.04 24.68Z" fill="url(#paint1_linear)" style="mix-blend-mode:multiply" />
    <path d="M17.6599 18.1502L12.0399 21.3902L6.40991 18.1502V11.6602L12.0399 8.41016L17.6599 11.6602V18.1502Z" fill="#002D74" />
    <defs>
        <linearGradient id="paint0_linear" x1="6.0186" y1="28.8023" x2="6.0186" y2="1" gradientUnits="userSpaceOnUse">
            <stop stop-color="#002D74" stop-opacity="0" />
            <stop offset="1" stop-color="#002D74" />
        </linearGradient>
        <linearGradient id="paint1_linear" x1="18.0558" y1="28.8023" x2="18.0558" y2="1" gradientUnits="userSpaceOnUse">
            <stop stop-color="#002D74" />
            <stop offset="1" stop-color="#002D74" stop-opacity="0" />
        </linearGradient>
    </defs>
</svg>
