<svg xmlns="http://www.w3.org/2000/svg" width="40" height="40" viewBox="0 0 40 40">
    <g fill="none" fill-rule="evenodd" stroke="#000" stroke-linecap="round" stroke-linejoin="round" stroke-width="2.5" opacity=".2">
        <path d="M24.833 23.04l4.834 7.4s.833 1.178 3.333 0c2.5-1.176 1.333-4.035 1.333-4.035L23.5 8.409s-2.333 2.691-4.833 3.868c-5.5 2.691-7 .505-7-2.018 0-1.177 1.333-.84 5.833-5.55C21 .841 21.667 0 23.667 0H26c4 0 5 .673 7.333 2.186 3.667 2.523 5 2.86 5 2.86v18.5h-5" transform="translate(0 2)"/>
        <path d="M29.167 29.768c0 .673 0 1.85-1.334 2.523-2.666 1.514-3.666.168-3.666.168l-5.334-8.073M23.5 31.955c-.167.672-.5 1.177-1.5 1.681-2.5 1.178-3.667 0-3.667 0L12.5 25.564" transform="translate(0 2)"/>
        <path d="M17.5 3.364c-7.333 0-7.5 1.681-10.833 1.681h-5v20.182h1.666c2.167 0 4 2.187 4 2.187L12 34.14s1.333 2.186 3.833.673c1-.505 1.334-1.178 1.667-1.682" transform="translate(0 2)"/>
    </g>
</svg>
