<svg xmlns="http://www.w3.org/2000/svg" width="40" height="40" viewBox="0 0 40 40">
    <g opacity=".2">
        <path d="M16.603 6.147c-4.971 0-9.015 4.045-9.015 9.016 0 2.944 1.4 5.643 3.773 7.335l.417 6.235c.04.607.545 1.079 1.153 1.079h7.344c.608 0 1.113-.472 1.153-1.079l.417-6.235c2.374-1.692 3.774-4.39 3.774-7.335 0-4.971-4.044-9.016-9.016-9.016zM19.194 27.5h-5.182l-.3-4.492h5.782l-.3 4.492zm1.192-6.803H17.76v-3.654l.71.41c.552.319 1.26.13 1.578-.424.32-.552.13-1.26-.423-1.578l-.71-.41.71-.41c.553-.319.743-1.026.423-1.579-.319-.553-1.026-.742-1.578-.423l-.71.41v-.82c0-.638-.517-1.155-1.156-1.155-.638 0-1.155.517-1.155 1.156v.82l-.71-.41c-.553-.32-1.26-.13-1.58.422-.318.553-.129 1.26.424 1.58l.71.409-.71.41c-.553.319-.742 1.026-.423 1.578.319.553 1.026.743 1.579.423l.71-.41v3.655H12.82c-1.835-1.252-2.92-3.298-2.92-5.534 0-3.697 3.007-6.704 6.703-6.704 3.697 0 6.705 3.007 6.705 6.704 0 2.236-1.087 4.281-2.922 5.534z" transform="translate(2)"/>
        <path d="M36.596 23.075l-3.027-5.292c-.052-.108-.077-.229-.074-.351.223-7.623-4.19-14.05-11.24-16.375C13.232-1.919 2.554 1.35.494 11.368c-1.49 7.248.655 10.365 3.136 13.258 1.142 1.33 1.966 2.292 1.991 3.788.058 3.363-.978 6.933-1.856 9.336-.276.753.283 1.553 1.085 1.553h15.926c.561 0 1.041-.403 1.138-.956.192-1.094.418-1.902.61-2.462 1.304.685 2.761 1.244 4.152 1.583 2.102.513 3.548.43 4.297-.246 1.2-1.082 1.69-2.52 2.585-9.874l1.046-.149c1.946-.277 3.012-2.417 1.993-4.124zm-2.319 1.836l-1.213.172c-.935.133-1.668.881-1.781 1.82-.113.932-.22 1.759-.319 2.493-1.15.075-2.311-.165-3.339-.7-.567-.294-1.264-.073-1.558.494-.295.566-.074 1.264.492 1.558 1.237.642 2.614.973 3.997.973h.063c-.452 2.733-.778 3.376-1.136 3.729-.229.06-1.044.104-2.576-.309-1.489-.4-3.057-1.085-4.303-1.878-.535-.34-1.242-.186-1.588.344-.077.117-.691 1.107-1.191 3.384H6.467c.785-2.454 1.516-5.584 1.465-8.617-.04-2.328-1.315-3.815-2.548-5.253-1.962-2.288-3.99-4.654-2.627-11.287C4.57 3.018 14.13.81 21.532 3.252c6.056 1.997 9.845 7.537 9.653 14.113-.015.517.101 1.033.336 1.49l.025.047 3.05 5.332.014.024c.182.3-.032.61-.333.653z" transform="translate(2)"/>
    </g>
</svg>
