<svg xmlns="http://www.w3.org/2000/svg" width="160" height="32" viewBox="0 0 160 32">
    <g fill="none" fill-rule="evenodd">
        <g fill="#FFF">
            <path d="M6.245 15.639c-3.48 0-6.05-2.726-6.05-6.074 0-3.347 2.57-6.14 6.072-6.14 2.218 0 3.592.82 4.678 2.018L9.283 7.238c-.821-.864-1.685-1.463-3.038-1.463-1.95 0-3.369 1.685-3.369 3.746 0 2.106 1.441 3.79 3.502 3.79 1.264 0 2.195-.598 3.037-1.462l1.618 1.595c-1.152 1.286-2.504 2.195-4.788 2.195M16.123 15.639h-2.681V3.448h2.681v2.86c.731-1.752 2.084-2.95 4.145-2.86v2.837h-.155c-2.35 0-3.99 1.53-3.99 4.633v4.72zM34.307 3.425L28.381 18.921 25.662 18.921 26.957 15.643 21.879 3.425 24.739 3.425 28.203 12.449 31.529 3.425zM42.22 5.753c-1.817 0-3.414 1.485-3.414 3.768 0 2.284 1.597 3.768 3.414 3.768 1.84 0 3.347-1.44 3.347-3.768 0-2.306-1.53-3.768-3.347-3.768m.62 9.863c-1.927 0-3.147-.975-3.968-2.06v5.364h-2.681V3.425h2.681V5.62c.865-1.219 2.085-2.194 3.968-2.194 2.771 0 5.454 2.194 5.454 6.096 0 3.901-2.66 6.095-5.454 6.095M54.173 5.975v5.74c0 1.04.529 1.46 1.44 1.46h1.052v2.396h-1.834c-1.952-.006-3.34-.873-3.34-3.436v-6.16h-1.489V3.672h1.49V.457h2.68v3.215h2.493v2.303h-2.492zM65.149 5.775c-2.151 0-3.525 1.685-3.525 3.746 0 2.084 1.485 3.79 3.569 3.79 2.171 0 3.546-1.684 3.546-3.746 0-2.084-1.485-3.79-3.59-3.79m0 9.863c-3.57 0-6.208-2.725-6.208-6.073 0-3.37 2.66-6.14 6.252-6.14 3.59 0 6.228 2.726 6.228 6.096 0 3.348-2.66 6.117-6.272 6.117M76.33 13.179v1.351c0 .058-.028.11-.078.136l-1.17.676c-.049.028-.11.028-.155 0l-1.173-.676c-.047-.026-.078-.078-.078-.136V13.18c0-.055.03-.106.078-.136l1.173-.675c.046-.029.106-.029.155 0l1.17.675c.05.03.078.081.078.136M97.063 5.775c-2.15 0-3.524 1.685-3.524 3.746 0 2.084 1.485 3.79 3.569 3.79 2.171 0 3.545-1.684 3.545-3.746 0-2.084-1.484-3.79-3.59-3.79m0 9.863c-3.569 0-6.207-2.725-6.207-6.073 0-3.37 2.66-6.14 6.252-6.14 3.59 0 6.228 2.726 6.228 6.096 0 3.348-2.66 6.117-6.273 6.117M84.496 15.625c-3.48-.067-5.998-2.842-5.933-6.189.064-3.346 2.688-6.089 6.19-6.022 2.216.043 3.574.889 4.637 2.107l-1.696 1.762c-.803-.88-1.656-1.494-3.008-1.52-1.95-.038-3.402 1.62-3.441 3.68-.04 2.106 1.368 3.818 3.428 3.857 1.264.025 2.206-.556 3.065-1.404l1.588 1.627c-1.177 1.263-2.546 2.145-4.83 2.102M119.278 3.425c2.55 0 4.101 1.618 4.101 4.477v7.737h-2.681V8.723c0-1.862-.865-2.86-2.372-2.86-1.463 0-2.505 1.02-2.505 2.904v6.872h-2.682V8.7c0-1.818-.887-2.837-2.373-2.837-1.484 0-2.504 1.109-2.504 2.926v6.849h-2.682V3.425h2.682v2.018c.754-1.042 1.774-2.018 3.569-2.018 1.685 0 2.86.82 3.48 2.061.954-1.24 2.194-2.06 3.967-2.06" transform="translate(0 .941) translate(34.824 6.588)"/>
        </g>
        <g fill="#FEFEFE">
            <path d="M0 7.619v15.237l13.128 7.62 13.126-7.62V7.62L13.128 0 0 7.619zm1.156 14.57V8.29l11.972-6.952L25.102 8.29v13.898l-11.974 6.95-11.972-6.95z" transform="translate(0 .941)"/>
            <path d="M18.273 6.578L7.958 6.578 6.762 11.865 19.516 11.865zM9.788 19.141L9.788 15.628 6.732 13.676 3.274 16.259 7.988 24.499 9.87 24.499 12.097 22.416 12.097 21.368z" transform="translate(0 .941)"/>
            <path d="M16.479 12.663L9.799 12.663 10.924 15.617 10.582 18.927 13.127 18.927 15.698 18.915 15.377 15.617z" transform="translate(0 .941)"/>
            <path d="M19.534 13.652L16.514 15.628 16.514 19.141 14.205 21.368 14.205 22.416 16.431 24.476 18.29 24.476 22.981 16.259z" transform="translate(0 .941)"/>
        </g>
    </g>
</svg>
