<svg version="1.1" id="Layer_1" xmlns="http://www.w3.org/2000/svg" xmlns:xlink="http://www.w3.org/1999/xlink" x="0px" y="0px"
	 viewBox="0 0 219 44.6" style="enable-background:new 0 0 219 44.6;" xml:space="preserve" width="160" height="32">
<style type="text/css">
	.st0{fill:#002D74;}
	.st1{fill:url(#SVGID_1_);}
	.st2{fill:url(#SVGID_2_);}
	.st3{fill:#FFFFFF;}
	.st4{fill:url(#SVGID_3_);}
	.st5{fill:url(#SVGID_4_);}
	.st6{fill:url(#SVGID_5_);}
	.st7{fill:url(#SVGID_6_);}
</style>
<g>
	<g>
		<path class="st3" d="M166.6,23.8L166.6,23.8c0-5,3.9-9.1,9.2-9.1c5.3,0,9.2,4,9.2,8.9v0.1c0,4.9-3.9,9-9.2,9
			C170.5,32.7,166.6,28.6,166.6,23.8z M181.1,23.8L181.1,23.8c0-3.1-2.2-5.6-5.3-5.6c-3.2,0-5.2,2.5-5.2,5.5v0.1
			c0,3,2.2,5.5,5.3,5.5C179,29.2,181.1,26.7,181.1,23.8z"/>
		<path class="st3" d="M189,15h3.9v3.9c1.1-2.6,3.1-4.3,6.1-4.2v4.2h-0.2c-3.5,0-5.9,2.3-5.9,6.8v6.6H189V15z"/>
		<path class="st3" d="M205.1,37.6v-3.2c0,0,2.1,0,4.5,0c3.5,0,5.5-1.8,5.5-5.3v-1.3c-1.4,1.9-3.2,3.2-6.1,3.2c-4,0-7.8-3-7.8-8.1
			v-0.1c0-5.1,3.8-8.1,7.8-8.1c2.9,0,4.7,1.3,6,2.9V15h3.9v13.7c0,2.9-0.8,5.1-2.2,6.5c-1.6,1.6-4,2.3-7.1,2.3
			C206.9,37.6,205.1,37.6,205.1,37.6z M215.1,22.8L215.1,22.8c0-2.9-2.3-4.8-5.1-4.8c-2.7,0-4.9,1.9-4.9,4.7v0.1
			c0,2.8,2.2,4.8,4.9,4.8C212.8,27.6,215.1,25.6,215.1,22.8z"/>
		<path class="st3" d="M163.2,29v2c0,0.1,0,0.2-0.1,0.2l-1.7,1c-0.1,0-0.2,0-0.2,0l-1.7-1c-0.1,0-0.1-0.1-0.1-0.2v-2
			c0-0.1,0-0.2,0.1-0.2l1.7-1c0.1,0,0.2,0,0.2,0l1.7,1C163.2,28.9,163.2,28.9,163.2,29z"/>
		<path class="st3" d="M60.3,32.6c-5.1,0-8.9-4-8.9-8.9s3.8-9,8.9-9c3.3,0,5.3,1.2,6.9,3l-2.4,2.6c-1.2-1.3-2.5-2.1-4.5-2.1
			c-2.9,0-4.9,2.5-4.9,5.5c0,3.1,2.1,5.6,5.1,5.6c1.9,0,3.2-0.9,4.5-2.1l2.4,2.3C65.7,31.3,63.7,32.6,60.3,32.6z"/>
		<path class="st3" d="M74.8,32.6h-3.9V14.7h3.9v4.2c1.1-2.6,3.1-4.3,6.1-4.2v4.2h-0.2c-3.5,0-5.9,2.2-5.9,6.8V32.6z"/>
		<polygon class="st3" points="101.5,14.7 92.8,37.5 88.8,37.5 90.7,32.6 83.3,14.7 87.5,14.7 92.6,28 97.4,14.7 		"/>
		<path class="st3" d="M114.1,32.6c-2.8,0-4.6-1.4-5.8-3v7.9h-3.9V14.7h3.9v3.2c1.3-1.8,3.1-3.2,5.8-3.2c4.1,0,8,3.2,8,9
			C122.1,29.4,118.2,32.6,114.1,32.6z M113.1,18.1c-2.7,0-5,2.2-5,5.5s2.3,5.5,5,5.5c2.7,0,4.9-2.1,4.9-5.5
			C118.1,20.3,115.8,18.1,113.1,18.1z"/>
		<path class="st3" d="M130.7,18.4v8.4c0,1.5,0.8,2.1,2.1,2.1h1.5v3.5h-2.7c-2.9,0-4.9-1.3-4.9-5v-9h-2.2v-3.4h2.2v-4.7h3.9v4.7h3.7
			v3.4H130.7z"/>
		<path class="st3" d="M146.8,32.6c-5.2,0-9.1-4-9.1-8.9c0-4.9,3.9-9,9.2-9c5.3,0,9.1,4,9.1,9C156,28.6,152.1,32.6,146.8,32.6z
			 M146.8,18.2c-3.2,0-5.2,2.5-5.2,5.5c0,3.1,2.2,5.6,5.2,5.6c3.2,0,5.2-2.5,5.2-5.5C152.1,20.7,149.9,18.2,146.8,18.2z"/>
	</g>
	<g>
		<path class="st3" d="M19.3,0L0,11.2v22.3l19.3,11.2l19.3-11.2V11.2L19.3,0z M32.9,30.2L19.3,38L5.7,30.2V14.5l13.6-7.9l13.6,7.9
			V30.2z"/>
		<polygon class="st3" points="28.4,27.5 19.3,32.7 10.3,27.5 10.3,17.1 19.3,11.9 28.4,17.1 		"/>
	</g>
</g>
</svg>
