<svg width="71" height="82" viewBox="0 0 71 82" fill="none" xmlns="http://www.w3.org/2000/svg">
    <g clip-path="url(#clip0)">
        <path d="M35.4 0L0 20.4V61.2L35.4 81.6L70.8 61.2V20.4L35.4 0ZM60.2 55.2L35.4 69.6L10.5 55.2V26.5L35.4 12.1L60.3 26.5V55.2H60.2Z" fill="#002D74" />
        <g style="mix-blend-mode:multiply">
            <path d="M35.4 12.1V0L0 20.4V61.2L35.4 81.6V69.6L10.5 55.2V26.5L35.4 12.1Z" fill="url(#paint0_linear)" />
        </g>
        <g style="mix-blend-mode:multiply">
            <path d="M35.4004 69.6V81.7L70.8004 61.3V20.4L35.4004 0V12.1L60.3004 26.5V55.2L35.4004 69.6Z" fill="url(#paint1_linear)" />
        </g>
        <path d="M51.9008 50.4001L35.4008 59.9001L18.8008 50.4001V31.3L35.4008 21.8L51.9008 31.3V50.4001Z" fill="#002D74" />
    </g>
    <defs>
        <linearGradient id="paint0_linear" x1="17.6798" y1="81.6699" x2="17.6798" y2="0" gradientUnits="userSpaceOnUse">
            <stop stop-color="#002D74" stop-opacity="0" />
            <stop offset="1" stop-color="#002D74" />
        </linearGradient>
        <linearGradient id="paint1_linear" x1="53.0397" y1="81.6699" x2="53.0397" y2="0" gradientUnits="userSpaceOnUse">
            <stop stop-color="#002D74" />
            <stop offset="1" stop-color="#002D74" stop-opacity="0" />
        </linearGradient>
        <clipPath id="clip0">
            <rect width="70.7" height="81.7" fill="white" />
        </clipPath>
    </defs>
</svg>
