<svg xmlns="http://www.w3.org/2000/svg" width="80" height="80" viewBox="0 0 80 80">
    <g fill="#FEFEFE" fill-rule="evenodd">
        <path d="M0 19.295v38.588L33.248 77.18l33.24-19.297V19.295L33.248 0 0 19.295zm2.926 36.896V20.994L33.248 3.387 63.57 20.994v35.197l-30.323 17.6-30.322-17.6z" transform="translate(6.667 1)"/>
        <path d="M46.276 16.66L20.152 16.66 17.124 30.049 49.425 30.049zM24.787 48.475L24.787 39.578 17.049 34.633 8.292 41.176 20.229 62.044 24.996 62.044 30.636 56.767 30.636 54.115z" transform="translate(6.667 1)"/>
        <path d="M41.732 32.069L24.816 32.069 27.666 39.549 26.798 47.931 33.245 47.931 39.754 47.902 38.943 39.549z" transform="translate(6.667 1)"/>
        <path d="M49.471 34.572L41.822 39.578 41.822 48.475 35.975 54.115 35.975 56.767 41.612 61.985 46.32 61.985 58.199 41.176z" transform="translate(6.667 1)"/>
    </g>
</svg>
