<svg xmlns="http://www.w3.org/2000/svg" width="40" height="40" viewBox="0 0 40 40">
    <g fill="none" fill-rule="evenodd" stroke-linecap="round" stroke-linejoin="round" stroke-width="2.5">
        <g stroke="#000" opacity=".2">
            <g>
                <path d="M4.416 8.831L13.247 8.831M4.416 16.19L19.134 16.19M23.55 0L0 0 0 29.437M4.416 22.078L19.134 22.078" transform="translate(1 2) translate(5.887)"/>
            </g>
            <path d="M29.437 29.437L29.437 0M2.797 32.381L26.641 32.381" transform="translate(1 2)"/>
            <g>
                <path d="M4.268 0L0 0M0 0L0 20.606" transform="translate(1 2) translate(0 8.831)"/>
            </g>
            <path d="M26.494 32.381c1.619 0 2.943-1.325 2.943-2.944M2.944 32.381c1.619 0 2.943-1.325 2.943-2.944M0 29.437c0 1.62 1.325 2.944 2.944 2.944" transform="translate(1 2)"/>
        </g>
        <g fill="#FFF" stroke="#C5C7C8" transform="translate(15 14)">
            <path d="M20.836 14.073L24 13.636v-3.163l-3.164-.437c-.218-.981-.654-1.963-1.2-2.836L21.6 4.582 19.418 2.4 16.8 4.364c-.873-.546-1.745-.873-2.727-1.091L13.636 0h-3.163l-.437 3.273c-.981.218-1.963.654-2.836 1.2L4.582 2.509 2.4 4.691 4.364 7.2c-.546.873-.982 1.745-1.2 2.836L0 10.473v3.163l3.164.437c.218.982.654 1.963 1.2 2.836l-1.855 2.618 2.182 2.182 2.618-1.964c.873.546 1.746.873 2.727 1.091L10.473 24h3.163l.437-3.164c.982-.218 1.963-.654 2.727-1.2l2.618 1.964 2.182-2.182-1.964-2.509c.546-.873.982-1.745 1.2-2.836z"/>
            <circle cx="12" cy="12.109" r="4.364"/>
        </g>
    </g>
</svg>
