<svg xmlns="http://www.w3.org/2000/svg" width="24" height="24" viewBox="0 0 24 24">
    <g fill="#808C99">
        <path d="M8.49 9.7c-.66 0-1.18.55-1.18 1.24s.53 1.24 1.18 1.24c.66 0 1.17-.55 1.17-1.24.02-.69-.51-1.24-1.17-1.24m4.21 0c-.66 0-1.18.55-1.18 1.24s.53 1.24 1.18 1.24c.66 0 1.18-.55 1.18-1.24S13.34 9.7 12.7 9.7" transform="translate(1.5 1)"/>
        <path d="M13.85 14.93s-.42-.49-.76-.9c1.51-.42 2.09-1.33 2.09-1.33-.47.31-.92.52-1.32.67-.58.24-1.13.38-1.67.49-1.11.2-2.12.15-2.99-.01-.66-.12-1.22-.29-1.69-.49-.27-.1-.55-.23-.84-.38-.04-.02-.07-.03-.1-.06-.02-.01-.04-.02-.05-.02-.21-.11-.32-.19-.32-.19s.55.89 2.02 1.32c-.35.43-.77.93-.77.93-2.55-.08-3.52-1.71-3.52-1.71 0-3.61 1.66-6.54 1.66-6.54C7.25 5.5 8.82 5.53 8.82 5.53l.12.14c-2.1.56-3.04 1.46-3.04 1.46s.25-.13.68-.32c1.23-.53 2.21-.67 2.62-.71.07-.01.13-.02.2-.02.7-.09 1.5-.11 2.33-.02 1.09.12 2.27.44 3.47 1.07 0 0-.91-.85-2.87-1.43l.16-.18s1.58-.03 3.23 1.18c0 0 1.66 2.93 1.66 6.54-.02-.02-.98 1.61-3.53 1.69M18.3.28H2.85C1.55.28.49 1.32.49 2.6v15.16c0 1.28 1.06 2.32 2.36 2.32h13.07l-.61-2.07 1.48 1.33 1.39 1.25 2.49 2.12V2.6C20.66 1.32 19.6.28 18.3.28" transform="translate(1.5 1)"/>
    </g>
</svg>
