<svg xmlns="http://www.w3.org/2000/svg" width="24" height="24" viewBox="0 0 24 24">
    <g fill="#808C99">
        <path d="M20.34 15.72c0 2.39-1.89 4.28-4.28 4.28H7.1c-2.39 0-4.28-1.89-4.28-4.28V6.86c0-2.39 1.89-4.28 4.28-4.28h8.96c2.39 0 4.28 1.89 4.28 4.28v8.86zM15.96.39H7.1C3.52.39.63 3.28.63 6.86v8.86c0 3.58 2.89 6.57 6.47 6.57h8.86c3.58 0 6.57-2.99 6.57-6.57V6.86c0-3.58-2.99-6.47-6.57-6.47" transform="translate(.5 .7)"/>
        <path d="M11.58 14.82c-1.89 0-3.49-1.59-3.49-3.49 0-1.89 1.59-3.48 3.49-3.48 1.9 0 3.49 1.59 3.49 3.48-.01 1.9-1.6 3.49-3.49 3.49m0-9.15c-3.09 0-5.67 2.49-5.67 5.67 0 3.09 2.49 5.68 5.67 5.68 3.09 0 5.67-2.49 5.67-5.68 0-3.19-2.59-5.67-5.67-5.67M18.55 5.67c0 .8-.6 1.39-1.39 1.39-.79 0-1.39-.6-1.39-1.39 0-.8.6-1.39 1.39-1.39.79.09 1.39.69 1.39 1.39" transform="translate(.5 .7)"/>
    </g>
</svg>
