<svg xmlns="http://www.w3.org/2000/svg" width="24" height="24" viewBox="0 0 24 24">
    <g fill="#808C99">
        <path d="M5.06 20.7c-.28 0-.53-.12-.69-.34-.28-.39-.14-.88-.06-1.14l.74-3.04C2.17 14.54.46 11.91.46 9.07.46 4.24 5.41.31 11.49.31c6.08 0 11.03 3.93 11.03 8.76s-4.95 8.76-11.03 8.76c-.51 0-1.02-.03-1.52-.08l-4.16 2.72c-.23.11-.48.23-.75.23zM11.5 1.75c-5.28 0-9.58 3.28-9.58 7.31 0 2.45 1.61 4.73 4.3 6.09l.51.26-.78 3.23 3.69-2.41.27.03c.53.07 1.07.1 1.6.1 5.28 0 9.58-3.28 9.58-7.31 0-4.03-4.31-7.3-9.59-7.3z" transform="translate(.5 1.5)"/>
        <path d="M7.86 7.21c0-.26-.21-.46-.46-.46H4.21c-.26 0-.46.21-.46.46s.21.46.46.46h1.14v3.67c0 .26.21.46.46.46s.46-.21.46-.46V7.68H7.4c.25 0 .46-.21.46-.47zm3.26 3.03v-.02c0-.12-.05-.23-.12-.31L9.97 7.16c-.1-.27-.34-.46-.62-.46-.27-.01-.53.16-.64.44l-1.63 4c-.1.24.02.51.25.6.24.1.51-.02.6-.25l.32-.8h2.03l.29.78c.07.19.25.3.43.3.05 0 .11-.01.16-.03.24-.09.36-.36.27-.6l-.31-.9zm-2.47-.48l.68-1.68.63 1.68H8.65zm5.74 1.07h-1.43V7.21c0-.26-.21-.46-.46-.46s-.46.21-.46.46v4.08c0 .26.21.46.46.46h1.9c.26 0 .46-.21.46-.46s-.21-.46-.47-.46zm2.91-1.89l1.44-1.4c.18-.18.19-.47.01-.65-.18-.19-.47-.19-.65-.01l-1.89 1.83V7.2c0-.26-.21-.46-.46-.46s-.46.21-.46.46v2.51c-.02.07-.02.15 0 .22v1.41c0 .26.21.46.46.46s.46-.21.46-.46V10l.42-.41 1.4 2c.09.13.23.2.38.2.09 0 .18-.03.27-.08.21-.15.26-.44.11-.65L17.3 8.94z" transform="translate(.5 1.5)"/>
    </g>
</svg>
