<svg xmlns="http://www.w3.org/2000/svg" width="24" height="24" viewBox="0 0 24 24">
    <path fill="#808C99" d="M2.28 21.63H6.6V8.64H2.28v12.99zM4.47 2.38C3.23 2.25 2.12 3.16 2 4.39c-.13 1.24.77 2.35 2.01 2.47.14.01.27.01.4 0 1.24.11 2.34-.8 2.45-2.04.11-1.24-.8-2.34-2.04-2.45-.14-.01-.27-.01-.41 0h.06v.01zm17.7 11.81v7.45h-4.32v-6.95c0-1.75-.62-2.94-2.18-2.94-.99.01-1.87.65-2.2 1.58-.12.34-.16.7-.15 1.05v7.25H8.98s.06-11.77 0-12.99h4.32v1.83c.8-1.38 2.3-2.19 3.89-2.13 2.85.01 4.98 1.84 4.98 5.85"/>
</svg>
