<svg xmlns="http://www.w3.org/2000/svg" width="24" height="24" viewBox="0 0 24 24">
    <path fill="#808C99" d="M22.028 11.233c0-.175-.092-.432-.175-.607-.175-.258-.35-.515-.607-.607-.258-.175-.515-.175-.865-.175-.257 0-.515.092-.782.175.782.69 1.39 1.472 1.822 2.337.175-.083.257-.258.35-.433.174-.175.257-.432.257-.69m-1.555 3.285c0-.865-.257-1.647-.782-2.337-.947-1.297-2.42-2.162-3.983-2.687-.258-.082-.608-.174-.865-.257-.865-.175-1.822-.35-2.77-.35-1.214 0-2.511.175-3.633.515-1.555.534-3.027 1.399-3.984 2.696-.515.782-.865 1.647-.865 2.42 0 .35 0 .607.083.864.175.69.515 1.298.957 1.73.432.515.947.957 1.555 1.297.082.083.257.175.35.258 1.646.947 3.55 1.297 5.455 1.297h.947c1.905-.175 3.81-.69 5.364-1.904.515-.35.948-.782 1.297-1.298.35-.515.607-1.04.782-1.646.092-.166.092-.34.092-.598m-16.017-4.5c-.258-.082-.432-.174-.69-.174h-.092c-.432 0-.782.175-1.04.432-.257.258-.432.608-.432.957v.083c0 .258.083.432.175.69.083.175.175.258.35.432.34-1.03 1.039-1.812 1.729-2.42m13.588-4.93s0 .082 0 0c0 .432.175.69.433.956.257.258.515.35.865.35h.082c.35 0 .608-.175.865-.35.258-.257.35-.515.433-.864v-.092c0-.35-.175-.608-.433-.865-.257-.258-.607-.35-.865-.35-.082 0-.174 0-.35.083-.257.083-.514.258-.69.432-.248.175-.34.433-.34.7m5.456 5.97v.175c0 .515-.175 1.123-.432 1.555-.258.432-.69.782-1.123 1.04 0 .257.092.432.092.69 0 1.214-.432 2.336-1.122 3.293-1.297 1.73-3.377 2.77-5.456 3.294-1.122.257-2.254.432-3.376.432-1.647 0-3.377-.35-4.931-.957-1.647-.69-3.202-1.73-4.159-3.284-.515-.865-.782-1.822-.782-2.77 0-.257 0-.432.083-.69-.432-.257-.782-.606-1.04-.947-.432-.515-.607-1.04-.607-1.555 0-.782.35-1.472.865-1.987.524-.543 1.214-.883 1.996-.883h.258c.35 0 .782.092 1.122.175.35.083.608.257.865.515.092-.083.175-.175.258-.175 1.647-.947 3.551-1.389 5.455-1.472 0-.947.083-1.904.608-2.769.35-.69 1.04-1.214 1.812-1.472.258-.083.607-.083.865-.083.782 0 1.555.175 2.337.515.35-.515.782-.864 1.297-1.04.257-.082.607-.174.957-.174s.69.083 1.04.175c.514.175.864.515 1.214.947.257.433.432.957.432 1.472v.258c-.092.69-.432 1.297-.865 1.73-.515.432-1.122.69-1.812.69H19c-.607-.074-1.214-.332-1.73-.856-.432-.432-.69-1.122-.69-1.73v-.092c-.607-.257-1.214-.515-1.904-.515h-.257c-.516.083-.948.35-1.123.782-.35.607-.432 1.39-.432 2.162 1.821.083 3.717.515 5.28 1.472 0 0 .083.083.175.083.083-.083.258-.175.35-.258.515-.35 1.04-.515 1.647-.515.257 0 .515 0 .782.083.69.258 1.214.607 1.647 1.04.404.432.671 1.04.754 1.646M8.09 14.692c.175.083.258.083.432.083.35 0 .69-.175 1.04-.432.258-.258.432-.607.432-1.04v-.083c0-.432-.174-.782-.432-.956-.258-.258-.607-.433-1.04-.433h-.257c-.515.175-.948.515-1.123 1.04-.082.175-.082.257-.082.432 0 .35.082.607.257.865.166.267.433.442.773.524m7.967 1.822c-.083-.083-.257-.083-.432-.083-.083 0-.258 0-.35.083-1.04.607-2.162.957-3.376.957-.865 0-1.73-.175-2.595-.607-.082-.083-.257-.175-.432-.258-.083-.092-.175-.092-.258-.175-.082 0-.174-.083-.257-.083-.083 0-.175 0-.258.083-.175.083-.257.175-.35.258-.082.083-.082.257-.082.432 0 .083 0 .258.083.35l.257.257c1.123.782 2.512 1.123 3.809 1.123 1.214 0 2.429-.258 3.551-.782.175-.083.35-.175.515-.258.092-.083.175-.083.258-.175.083-.082.175-.174.175-.35v-.174c0-.083 0-.175-.083-.258 0-.174-.092-.257-.175-.34m.865-3.643c.083.175.083.35.083.432 0 .35-.083.607-.258.865s-.432.432-.69.515c-.175.083-.257.083-.432.083-.35 0-.69-.083-.948-.35-.257-.174-.432-.515-.515-.864v-.258c0-.258.083-.607.258-.865.174-.257.432-.432.69-.515.174-.092.35-.092.515-.092.257 0 .607.092.865.258.174.193.35.45.432.79"/>
</svg>
