<svg xmlns="http://www.w3.org/2000/svg" width="24" height="24" viewBox="0 0 24 24">
    <path fill="#808C99" d="M19.05 6.32l-9.4 8.29c-.09.08-.15.2-.17.32l-.36 3.2c-.02.06-.07.09-.13.07-.03-.01-.06-.04-.07-.07l-1.41-4.77c-.07-.23.04-.47.25-.57l11.02-6.86c.13-.03.26.05.3.18.03.07.01.15-.03.21m2.56-3.66L1.44 10.53c-.38.14-.57.56-.43.94.09.22.27.39.49.45l5.12 1.51L8.5 19.5c.15.46.64.72 1.11.57.13-.04.26-.12.36-.22l2.65-2.71 5.2 3.82c.48.36 1.16.25 1.51-.23.09-.13.16-.27.19-.42L23 3.87c.13-.56-.23-1.12-.79-1.25-.19-.05-.41-.03-.6.04"/>
</svg>
