<svg xmlns="http://www.w3.org/2000/svg" width="24" height="24" viewBox="0 0 24 24">
    <path fill="#808C99" d="M22.67 5.13c-.49.21-.99.38-1.51.51.58-.56 1.01-1.26 1.25-2.03.03-.14-.05-.27-.19-.31-.06-.01-.12-.01-.18.02-.72.43-1.5.75-2.32.95-.05.01-.1.01-.14 0-.15 0-.29-.05-.41-.15-.87-.74-1.99-1.14-3.14-1.12-.5.01-.99.09-1.47.23-1.53.47-2.72 1.71-3.11 3.27-.14.57-.18 1.16-.11 1.74.02.04.02.09 0 .13-.03.04-.08.06-.13.06-3.36-.27-6.46-1.9-8.59-4.51-.09-.12-.25-.14-.36-.05-.02.01-.03.03-.05.05-.41.72-.63 1.54-.64 2.38-.01 1.28.5 2.5 1.41 3.4-.38-.08-.74-.22-1.07-.42-.12-.07-.28-.02-.35.1-.03.05-.04.1-.03.15-.02 1.87 1.06 3.58 2.76 4.37H4.2c-.26-.01-.52-.05-.77-.11-.13-.02-.26.06-.28.2-.01.04 0 .08.01.12.54 1.68 1.97 2.93 3.71 3.23-1.44.97-3.14 1.48-4.88 1.48H1.4c-.2-.01-.37.15-.38.35 0 .14.07.28.2.34 1.99 1.16 4.26 1.77 6.56 1.76 1.92.02 3.82-.38 5.57-1.18 1.55-.72 2.92-1.76 4.05-3.04 1.08-1.23 1.93-2.65 2.5-4.18.55-1.46.84-3.01.85-4.58v-.1c0-.25.11-.48.3-.63.72-.58 1.35-1.26 1.87-2.03.08-.11.06-.26-.04-.34-.07-.06-.18-.07-.26-.02l.05-.04z"/>
</svg>
